<svg width="160" height="28" viewBox="0 0 160 28" fill="none" xmlns="http://www.w3.org/2000/svg">
<path d="M16.4199 18.5801H21.2539C21.125 20.291 20.6504 21.8086 19.8301 23.1328C19.0098 24.4453 17.8672 25.4766 16.4023 26.2266C14.9375 26.9766 13.1621 27.3516 11.0762 27.3516C9.4707 27.3516 8.02344 27.0703 6.73438 26.5078C5.45703 25.9336 4.36133 25.1191 3.44727 24.0645C2.54492 22.998 1.85352 21.7207 1.37305 20.2324C0.892578 18.7324 0.652344 17.0508 0.652344 15.1875V13.2363C0.652344 11.373 0.898438 9.69141 1.39062 8.19141C1.88281 6.69141 2.58594 5.41406 3.5 4.35938C4.42578 3.29297 5.5332 2.47266 6.82227 1.89844C8.12305 1.32422 9.57617 1.03711 11.1816 1.03711C13.2676 1.03711 15.0312 1.42383 16.4727 2.19727C17.9141 2.95898 19.0332 4.00781 19.8301 5.34375C20.627 6.67969 21.1074 8.21484 21.2715 9.94922H16.4375C16.3438 8.87109 16.1094 7.95703 15.7344 7.20703C15.3711 6.45703 14.8203 5.88867 14.082 5.50195C13.3555 5.10352 12.3887 4.9043 11.1816 4.9043C10.2441 4.9043 9.41797 5.08008 8.70312 5.43164C8 5.7832 7.41406 6.31055 6.94531 7.01367C6.47656 7.70508 6.125 8.57227 5.89062 9.61523C5.65625 10.6465 5.53906 11.8418 5.53906 13.2012V15.1875C5.53906 16.4883 5.64453 17.6543 5.85547 18.6855C6.06641 19.7168 6.39453 20.5898 6.83984 21.3047C7.28516 22.0195 7.85938 22.5645 8.5625 22.9395C9.26562 23.3145 10.1035 23.502 11.0762 23.502C12.2598 23.502 13.2207 23.3145 13.959 22.9395C14.709 22.5645 15.2773 22.0137 15.6641 21.2871C16.0625 20.5605 16.3145 19.6582 16.4199 18.5801ZM29.1992 0V27H24.541V0H29.1992ZM28.4609 16.8047H27.0898C27.0898 15.4805 27.2656 14.2617 27.6172 13.1484C27.9688 12.0352 28.4668 11.0684 29.1113 10.248C29.7559 9.41602 30.5234 8.77148 31.4141 8.31445C32.3164 7.85742 33.3125 7.62891 34.4023 7.62891C35.3398 7.62891 36.1895 7.76367 36.9512 8.0332C37.7246 8.29102 38.3867 8.70703 38.9375 9.28125C39.4883 9.85547 39.9102 10.6055 40.2031 11.5312C40.5078 12.4453 40.6602 13.5586 40.6602 14.8711V27H35.9844V14.8359C35.9844 13.957 35.8555 13.2656 35.5977 12.7617C35.3398 12.2461 34.9707 11.877 34.4902 11.6543C34.0215 11.4316 33.4414 11.3203 32.75 11.3203C32 11.3203 31.3555 11.4668 30.8164 11.7598C30.2773 12.041 29.832 12.4336 29.4805 12.9375C29.1406 13.4414 28.8828 14.0215 28.707 14.6777C28.543 15.334 28.4609 16.043 28.4609 16.8047ZM49.6777 7.98047V27H45.0195V7.98047H49.6777ZM44.7031 3.00586C44.7031 2.31445 44.9375 1.74023 45.4062 1.2832C45.8867 0.826172 46.5312 0.597656 47.3398 0.597656C48.1484 0.597656 48.7871 0.826172 49.2559 1.2832C49.7363 1.74023 49.9766 2.31445 49.9766 3.00586C49.9766 3.68555 49.7363 4.25391 49.2559 4.71094C48.7871 5.16797 48.1484 5.39648 47.3398 5.39648C46.5312 5.39648 45.8867 5.16797 45.4062 4.71094C44.9375 4.25391 44.7031 3.68555 44.7031 3.00586ZM58.6602 12.041V27H54.0195V7.98047H58.3789L58.6602 12.041ZM57.9219 16.8047H56.5508C56.5625 15.4219 56.75 14.168 57.1133 13.043C57.4766 11.918 57.9863 10.9512 58.6426 10.1426C59.3105 9.33398 60.1016 8.71289 61.0156 8.2793C61.9297 7.8457 62.9492 7.62891 64.0742 7.62891C64.9883 7.62891 65.8145 7.75781 66.5527 8.01562C67.291 8.27344 67.9238 8.68359 68.4512 9.24609C68.9902 9.80859 69.4004 10.5469 69.6816 11.4609C69.9746 12.3633 70.1211 13.4766 70.1211 14.8008V27H65.4453V14.7656C65.4453 13.8984 65.3164 13.2129 65.0586 12.709C64.8125 12.2051 64.4492 11.8477 63.9688 11.6367C63.5 11.4258 62.9199 11.3203 62.2285 11.3203C61.5137 11.3203 60.8867 11.4668 60.3477 11.7598C59.8203 12.041 59.375 12.4336 59.0117 12.9375C58.6602 13.4414 58.3906 14.0215 58.2031 14.6777C58.0156 15.334 57.9219 16.043 57.9219 16.8047Z" fill="#3AFFFF"/>
<path d="M96.9277 20.3555C96.9277 19.8633 96.8516 19.4238 96.6992 19.0371C96.5586 18.6387 96.2949 18.2812 95.9082 17.9648C95.5332 17.6367 95 17.3203 94.3086 17.0156C93.6289 16.6992 92.75 16.3711 91.6719 16.0312C90.4766 15.6562 89.3633 15.2344 88.332 14.7656C87.3008 14.2969 86.3926 13.752 85.6074 13.1309C84.834 12.5098 84.2305 11.7949 83.7969 10.9863C83.3633 10.166 83.1465 9.2168 83.1465 8.13867C83.1465 7.08398 83.3691 6.12305 83.8145 5.25586C84.2715 4.38867 84.916 3.64453 85.748 3.02344C86.5801 2.39062 87.5586 1.9043 88.6836 1.56445C89.8203 1.22461 91.0742 1.05469 92.4453 1.05469C94.3438 1.05469 95.9844 1.40039 97.3672 2.0918C98.7617 2.7832 99.8398 3.7207 100.602 4.9043C101.363 6.08789 101.744 7.41797 101.744 8.89453H96.9277C96.9277 8.09766 96.7578 7.39453 96.418 6.78516C96.0898 6.17578 95.5859 5.69531 94.9062 5.34375C94.2383 4.99219 93.3945 4.81641 92.375 4.81641C91.3906 4.81641 90.5703 4.96289 89.9141 5.25586C89.2695 5.54883 88.7832 5.94727 88.4551 6.45117C88.1387 6.95508 87.9805 7.51758 87.9805 8.13867C87.9805 8.60742 88.0918 9.0293 88.3145 9.4043C88.5371 9.76758 88.8711 10.1133 89.3164 10.4414C89.7617 10.7578 90.3125 11.0566 90.9688 11.3379C91.6367 11.6074 92.4102 11.877 93.2891 12.1465C94.6953 12.5684 95.9258 13.0371 96.9805 13.5527C98.0469 14.0684 98.9316 14.6543 99.6348 15.3105C100.35 15.9668 100.883 16.7051 101.234 17.5254C101.598 18.3457 101.779 19.2773 101.779 20.3203C101.779 21.4219 101.562 22.4062 101.129 23.2734C100.695 24.1406 100.074 24.8789 99.2656 25.4883C98.457 26.0977 97.4844 26.5605 96.3477 26.877C95.2227 27.1934 93.9629 27.3516 92.5684 27.3516C91.3262 27.3516 90.0957 27.1875 88.877 26.8594C87.6699 26.5195 86.5742 26.0156 85.5898 25.3477C84.6055 24.668 83.8203 23.8125 83.2344 22.7812C82.6484 21.7383 82.3555 20.5195 82.3555 19.125H87.207C87.207 19.9336 87.3359 20.625 87.5938 21.1992C87.8633 21.7617 88.2383 22.2246 88.7188 22.5879C89.2109 22.9395 89.7852 23.1973 90.4414 23.3613C91.0977 23.5254 91.8066 23.6074 92.5684 23.6074C93.5527 23.6074 94.3613 23.4727 94.9941 23.2031C95.6387 22.9219 96.1191 22.5352 96.4355 22.043C96.7637 21.5508 96.9277 20.9883 96.9277 20.3555ZM113.697 27.3516C112.256 27.3516 110.961 27.1172 109.812 26.6484C108.664 26.1797 107.686 25.5293 106.877 24.6973C106.08 23.8535 105.465 22.875 105.031 21.7617C104.609 20.6367 104.398 19.4297 104.398 18.1406V17.4375C104.398 15.9727 104.609 14.6426 105.031 13.4473C105.453 12.2402 106.051 11.2031 106.824 10.3359C107.598 9.46875 108.523 8.80078 109.602 8.33203C110.68 7.86328 111.869 7.62891 113.17 7.62891C114.518 7.62891 115.707 7.85742 116.738 8.31445C117.77 8.75977 118.631 9.39258 119.322 10.2129C120.014 11.0332 120.535 12.0176 120.887 13.166C121.238 14.3027 121.414 15.5625 121.414 16.9453V18.8965H106.508V15.6973H116.844V15.3457C116.82 14.6074 116.68 13.9336 116.422 13.3242C116.164 12.7031 115.766 12.2109 115.227 11.8477C114.688 11.4727 113.99 11.2852 113.135 11.2852C112.443 11.2852 111.84 11.4375 111.324 11.7422C110.82 12.0352 110.398 12.457 110.059 13.0078C109.73 13.5469 109.484 14.1914 109.32 14.9414C109.156 15.6914 109.074 16.5234 109.074 17.4375V18.1406C109.074 18.9375 109.18 19.6758 109.391 20.3555C109.613 21.0352 109.936 21.627 110.357 22.1309C110.791 22.623 111.307 23.0098 111.904 23.291C112.514 23.5605 113.205 23.6953 113.979 23.6953C114.951 23.6953 115.83 23.5078 116.615 23.1328C117.412 22.7461 118.104 22.1777 118.689 21.4277L121.027 23.8535C120.629 24.4395 120.09 25.002 119.41 25.541C118.742 26.0801 117.934 26.5195 116.984 26.8594C116.035 27.1875 114.939 27.3516 113.697 27.3516ZM129.447 7.98047V27H124.789V7.98047H129.447ZM124.473 3.00586C124.473 2.31445 124.707 1.74023 125.176 1.2832C125.656 0.826172 126.301 0.597656 127.109 0.597656C127.918 0.597656 128.557 0.826172 129.025 1.2832C129.506 1.74023 129.746 2.31445 129.746 3.00586C129.746 3.68555 129.506 4.25391 129.025 4.71094C128.557 5.16797 127.918 5.39648 127.109 5.39648C126.301 5.39648 125.656 5.16797 125.176 4.71094C124.707 4.25391 124.473 3.68555 124.473 3.00586ZM138.799 0V27H134.141V0H138.799ZM153.705 22.957V14.1855C153.705 13.541 153.594 12.9844 153.371 12.5156C153.148 12.0469 152.809 11.6836 152.352 11.4258C151.895 11.168 151.314 11.0391 150.611 11.0391C149.99 11.0391 149.445 11.1445 148.977 11.3555C148.52 11.5664 148.168 11.8652 147.922 12.252C147.676 12.627 147.553 13.0605 147.553 13.5527H142.895C142.895 12.7676 143.082 12.0234 143.457 11.3203C143.832 10.6055 144.365 9.97266 145.057 9.42188C145.76 8.85938 146.598 8.41992 147.57 8.10352C148.555 7.78711 149.656 7.62891 150.875 7.62891C152.316 7.62891 153.6 7.875 154.725 8.36719C155.861 8.84766 156.752 9.57422 157.396 10.5469C158.053 11.5195 158.381 12.7441 158.381 14.2207V22.5176C158.381 23.4668 158.439 24.2812 158.557 24.9609C158.686 25.6289 158.873 26.209 159.119 26.7012V27H154.391C154.168 26.5195 153.998 25.9102 153.881 25.1719C153.764 24.4219 153.705 23.6836 153.705 22.957ZM154.355 15.416L154.391 18.1758H151.455C150.729 18.1758 150.09 18.252 149.539 18.4043C148.988 18.5449 148.537 18.7559 148.186 19.0371C147.834 19.3066 147.57 19.6348 147.395 20.0215C147.219 20.3965 147.131 20.8242 147.131 21.3047C147.131 21.7734 147.236 22.1953 147.447 22.5703C147.67 22.9453 147.986 23.2441 148.396 23.4668C148.818 23.6777 149.311 23.7832 149.873 23.7832C150.693 23.7832 151.408 23.6191 152.018 23.291C152.627 22.9512 153.102 22.541 153.441 22.0605C153.781 21.5801 153.963 21.123 153.986 20.6895L155.322 22.6934C155.158 23.1738 154.912 23.6836 154.584 24.2227C154.256 24.7617 153.834 25.2656 153.318 25.7344C152.803 26.2031 152.182 26.5898 151.455 26.8945C150.729 27.1992 149.885 27.3516 148.924 27.3516C147.693 27.3516 146.592 27.1055 145.619 26.6133C144.646 26.1211 143.879 25.4473 143.316 24.5918C142.754 23.7363 142.473 22.7637 142.473 21.6738C142.473 20.666 142.66 19.7754 143.035 19.002C143.41 18.2285 143.967 17.5781 144.705 17.0508C145.443 16.5117 146.357 16.1074 147.447 15.8379C148.549 15.5566 149.809 15.416 151.227 15.416H154.355Z" fill="white"/>
</svg>
