<svg width="387" height="68" viewBox="0 0 387 68" fill="none" xmlns="http://www.w3.org/2000/svg">
<path d="M0.944 54C1.584 53.616 2.13867 52.8907 2.608 51.824C3.12 50.7573 3.54667 49.5413 3.888 48.176C4.272 46.8107 4.54933 45.4027 4.72 43.952C4.89067 42.4587 4.976 41.0933 4.976 39.856C4.976 37.936 4.76267 36.1013 4.336 34.352C3.952 32.6027 3.39733 31.28 2.672 30.384C3.35467 29.7013 3.90933 28.8053 4.336 27.696C4.80533 26.544 5.168 25.328 5.424 24.048C5.68 22.7253 5.85067 21.3813 5.936 20.016C6.02133 18.6507 6.064 17.3707 6.064 16.176C6.064 15.1947 6.04267 14.3413 6 13.616C5.95733 12.8907 5.91467 12.336 5.872 11.952C4.89067 11.6107 3.86667 10.9067 2.8 9.84C1.776 8.77333 1.008 7.62133 0.496 6.384C3.22667 6.68266 5.808 6.896 8.24 7.024C10.7147 7.10933 13.04 7.152 15.216 7.152C19.8667 7.152 23.6213 7.00266 26.48 6.704C29.3387 6.40533 31.6 6.256 33.264 6.256C33.6053 6.256 33.904 6.27733 34.16 6.32C34.416 6.32 34.6507 6.34133 34.864 6.384C34.608 6.896 34.3307 7.856 34.032 9.264C33.776 10.672 33.52 12.208 33.264 13.872C33.008 15.536 32.7733 17.1573 32.56 18.736C32.3893 20.3147 32.2613 21.5093 32.176 22.32L31.728 22.512C30.2347 21.4027 29.1467 20.1867 28.464 18.864C27.824 17.4987 27.3333 15.8347 26.992 13.872C26.3947 13.4027 25.648 13.104 24.752 12.976C23.856 12.848 22.7253 12.784 21.36 12.784C20.2507 12.784 19.184 12.8053 18.16 12.848C17.136 12.8907 16.3253 12.912 15.728 12.912C15.5147 14.1493 15.3227 15.5787 15.152 17.2C15.024 18.8213 14.896 20.5493 14.768 22.384C14.6827 24.2187 14.5973 26.1387 14.512 28.144C14.4693 30.1067 14.448 32.0693 14.448 34.032C14.448 36.72 14.4693 39.28 14.512 41.712C14.5973 44.1013 14.7253 46.192 14.896 47.984L25.712 49.072C26.3093 46.4267 27.3547 44.08 28.848 42.032C30.384 39.984 32.0267 38 33.776 36.08L34.16 36.208C34.032 37.1893 33.9467 38.1707 33.904 39.152C33.8613 40.0907 33.84 41.008 33.84 41.904C33.84 44.1227 33.9467 46.128 34.16 47.92C34.3733 49.712 34.6293 51.056 34.928 51.952C34.2027 52.0373 33.4773 52.1653 32.752 52.336C32.0693 52.464 31.3227 52.6987 30.512 53.04C29.7013 53.3813 28.8267 53.8507 27.888 54.448C26.992 55.0453 25.9893 55.8133 24.88 56.752C21.296 55.6853 17.7547 54.8747 14.256 54.32C10.7573 53.808 7.6 53.552 4.784 53.552C3.41867 53.552 2.16 53.7653 1.008 54.192L0.944 54ZM57.4575 6.704C56.8175 7.30133 56.2628 8.112 55.7935 9.136C55.3668 10.1173 55.0042 11.2053 54.7055 12.4C54.4495 13.552 54.2575 14.768 54.1295 16.048C54.0015 17.2853 53.9375 18.48 53.9375 19.632V27.76C55.3455 27.9307 56.8175 28.0373 58.3535 28.08C59.8895 28.08 61.4682 28.08 63.0895 28.08C64.2415 28.08 65.3082 28.0587 66.2895 28.016C67.2708 27.9733 68.3802 27.9093 69.6175 27.824V18.608C69.6175 16.5173 69.4682 14.64 69.1695 12.976C68.8708 11.2693 68.2948 9.392 67.4415 7.344C68.9775 7.6 70.5775 7.728 72.2415 7.728C74.0335 7.728 75.8682 7.62133 77.7455 7.408C79.6655 7.19466 81.6068 6.96 83.5695 6.704C82.4175 7.38666 81.5215 8.28266 80.8815 9.392C80.2415 10.4587 79.7508 11.632 79.4095 12.912C79.1108 14.192 78.9188 15.4933 78.8335 16.816C78.7908 18.1387 78.7695 19.376 78.7695 20.528C78.7695 21.5093 78.8122 22.4907 78.8975 23.472C78.9828 24.4107 79.1322 25.328 79.3455 26.224C79.6015 27.0773 79.9215 27.8667 80.3055 28.592C80.7322 29.3173 81.2655 29.9147 81.9055 30.384C81.1375 31.7493 80.4335 33.456 79.7935 35.504C79.1962 37.552 78.8975 39.6 78.8975 41.648C78.8975 42.7573 78.9188 43.8453 78.9615 44.912C79.0468 45.936 79.1962 46.9173 79.4095 47.856C79.6655 48.752 80.0068 49.584 80.4335 50.352C80.9028 51.0773 81.5002 51.6747 82.2255 52.144C80.2202 52.8693 78.7055 53.808 77.6815 54.96C76.6575 56.112 75.8042 57.2427 75.1215 58.352C74.9082 57.7973 74.5455 57.2 74.0335 56.56C73.5215 55.9627 72.9242 55.3867 72.2415 54.832C71.5588 54.2773 70.7908 53.7653 69.9375 53.296C69.1268 52.8267 68.2735 52.4427 67.3775 52.144C67.9322 51.5467 68.3588 50.7787 68.6575 49.84C68.9562 48.8587 69.1695 47.7707 69.2975 46.576C69.4682 45.3813 69.5535 44.1013 69.5535 42.736C69.5962 41.3707 69.6175 39.984 69.6175 38.576V35.888C68.3802 35.76 67.2922 35.6747 66.3535 35.632C65.4575 35.5467 64.4975 35.504 63.4735 35.504C61.5535 35.504 59.8255 35.5467 58.2895 35.632C56.7962 35.7173 55.3882 35.8453 54.0655 36.016V39.408C54.0655 42.1387 54.3215 44.7413 54.8335 47.216C55.3455 49.648 56.4335 52.0373 58.0975 54.384C56.1775 54.0853 54.4495 53.8933 52.9135 53.808C51.4202 53.68 50.0975 53.616 48.9455 53.616C47.0255 53.616 45.3615 53.68 43.9535 53.808C42.5455 53.936 41.1375 54.1067 39.7295 54.32C40.6255 53.7653 41.4575 53.04 42.2255 52.144C42.9935 51.248 43.6548 50.2453 44.2095 49.136C44.7642 48.0267 45.1908 46.8533 45.4895 45.616C45.8308 44.3787 46.0015 43.1413 46.0015 41.904C46.0015 39.728 45.7455 37.616 45.2335 35.568C44.7215 33.4773 43.9108 31.7493 42.8015 30.384C43.9962 28.1653 44.8068 26.1387 45.2335 24.304C45.7028 22.4693 45.9375 20.5707 45.9375 18.608C45.9375 17.4133 45.8735 16.1333 45.7455 14.768C44.2095 14.384 42.7802 13.552 41.4575 12.272C40.1775 10.992 39.3882 9.11466 39.0895 6.64C40.8815 7.024 42.5455 7.30133 44.0815 7.472C45.6175 7.64266 47.0682 7.728 48.4335 7.728C50.0548 7.728 51.5695 7.62133 52.9775 7.408C54.4282 7.152 55.9215 6.91733 57.4575 6.704ZM108.015 6.704C107.119 7.30133 106.351 8.112 105.711 9.136C105.113 10.1173 104.623 11.2053 104.239 12.4C103.897 13.552 103.641 14.768 103.471 16.048C103.3 17.2853 103.215 18.48 103.215 19.632C103.215 20.4427 103.236 21.3173 103.279 22.256C103.364 23.152 103.471 24.0907 103.599 25.072C103.769 26.0107 103.961 26.9493 104.175 27.888C104.431 28.784 104.729 29.616 105.071 30.384C104.388 31.536 103.919 32.9227 103.663 34.544C103.449 36.1653 103.343 37.7867 103.343 39.408C103.343 42.1387 103.684 44.7413 104.367 47.216C105.049 49.648 106.479 52.0373 108.655 54.384C106.351 54.0853 104.324 53.8933 102.575 53.808C100.868 53.68 99.3105 53.616 97.9025 53.616C95.9825 53.616 94.3185 53.68 92.9105 53.808C91.5025 53.936 90.0945 54.1067 88.6865 54.32C89.5825 53.7653 90.4145 53.04 91.1825 52.144C91.9505 51.2053 92.6118 50.1813 93.1665 49.072C93.7212 47.9627 94.1478 46.7893 94.4465 45.552C94.7878 44.3147 94.9585 43.0987 94.9585 41.904C94.9585 39.728 94.7025 37.616 94.1905 35.568C93.6785 33.4773 92.8678 31.7493 91.7585 30.384C92.9532 28.1653 93.7425 26.1387 94.1265 24.304C94.5105 22.4693 94.7025 20.5707 94.7025 18.608C94.7025 17.4133 94.6385 16.1333 94.5105 14.768C92.8465 14.0853 91.7158 13.0187 91.1185 11.568C90.5212 10.0747 90.1372 8.432 89.9665 6.64C91.3745 7.024 92.6758 7.30133 93.8705 7.472C95.1078 7.64266 96.2812 7.728 97.3905 7.728C99.3532 7.728 101.167 7.62133 102.831 7.408C104.495 7.152 106.223 6.91733 108.015 6.704ZM144.846 45.68C144.632 41.456 144.462 37.4027 144.333 33.52C144.248 29.6373 144.163 26.2027 144.078 23.216C144.035 20.2293 143.992 17.84 143.95 16.048C143.95 14.256 143.95 13.3387 143.95 13.296C143.736 10.6933 142.392 8.90133 139.918 7.92C140.344 7.96266 140.75 7.984 141.134 7.984C141.56 7.984 141.987 7.984 142.414 7.984C144.334 7.984 146.083 7.89866 147.662 7.728C149.283 7.51466 150.755 7.30133 152.078 7.088C153.4 6.87466 154.595 6.68266 155.662 6.512C156.771 6.29866 157.795 6.192 158.734 6.192C159.246 6.192 159.736 6.256 160.206 6.384C157.646 8.21866 155.662 10.224 154.254 12.4C152.888 14.5333 152.206 16.944 152.206 19.632C152.206 22.7893 153.251 26.3733 155.342 30.384C154.36 32.8587 153.55 35.5253 152.91 38.384C152.312 41.2427 152.014 44.1013 152.014 46.96C152.014 48.1973 152.056 49.6267 152.142 51.248C152.27 52.8267 152.483 54.384 152.782 55.92C154.062 57.2853 155.192 58.352 156.174 59.12C157.198 59.888 158.115 60.464 158.926 60.848C159.736 61.232 160.483 61.488 161.166 61.616C161.891 61.744 162.595 61.8507 163.278 61.936L161.614 57.712C163.064 58.5227 164.515 59.2907 165.966 60.016C167.416 60.7413 168.91 61.3813 170.446 61.936C171.982 62.4907 173.582 62.9173 175.246 63.216C176.952 63.5573 178.766 63.728 180.686 63.728C181.966 63.728 183.288 63.6853 184.654 63.6C186.062 63.5147 187.534 63.3653 189.07 63.152C185.315 64.6453 181.774 65.712 178.446 66.352C175.16 67.0347 172.046 67.376 169.102 67.376C165.347 67.376 161.87 66.8427 158.67 65.776C155.512 64.7093 152.568 63.2587 149.838 61.424C147.15 59.632 144.675 57.5413 142.414 55.152C140.195 52.8053 138.147 50.3307 136.27 47.728C134.435 45.0827 132.771 42.416 131.278 39.728C129.827 37.04 128.526 34.48 127.374 32.048V38.576C127.374 41.2213 127.459 43.44 127.63 45.232C127.8 47.024 128.078 48.5813 128.462 49.904C128.846 51.2267 129.336 52.4 129.934 53.424C130.531 54.4053 131.256 55.408 132.11 56.432C131.171 56.176 130.339 55.92 129.614 55.664C128.931 55.408 128.248 55.1093 127.566 54.768C126.926 54.4267 126.243 54 125.518 53.488C124.835 52.976 124.024 52.336 123.086 51.568C121.934 53.616 120.398 55.3867 118.478 56.88C116.558 58.3733 113.976 59.6533 110.733 60.72C112.014 59.4827 113.208 58.0747 114.318 56.496C115.427 54.96 116.387 53.3173 117.198 51.568C118.051 49.776 118.712 47.9413 119.182 46.064C119.694 44.1867 119.95 42.288 119.95 40.368C119.95 38.576 119.715 36.848 119.246 35.184C118.819 33.52 118.094 31.92 117.07 30.384C119.16 26.3733 120.206 22.7893 120.206 19.632C120.206 16.944 119.502 14.5333 118.094 12.4C116.728 10.224 114.766 8.21866 112.206 6.384C112.632 6.256 113.123 6.192 113.678 6.192C114.531 6.192 115.491 6.29866 116.558 6.512C117.667 6.68266 118.862 6.87466 120.142 7.088C121.464 7.30133 122.872 7.51466 124.366 7.728C125.902 7.89866 127.544 7.984 129.294 7.984C129.72 7.984 130.126 7.984 130.51 7.984C130.936 7.984 131.363 7.96266 131.79 7.92C129.486 8.816 128.163 10.3947 127.822 12.656C128.59 14.576 129.507 16.7947 130.574 19.312C131.683 21.8293 132.899 24.4747 134.222 27.248C135.587 30.0213 137.059 32.8373 138.638 35.696C140.216 38.512 141.859 41.2 143.566 43.76L144.846 45.68Z" fill="#00FFF0"/>
<path d="M202.5 22.5H198.719C197.115 22.5 195.958 22.0938 195.25 21.2812C194.542 20.4479 194.188 19.3542 194.188 18C194.188 15 196.427 13.5 200.906 13.5C205.115 13.5 208.281 14.125 210.406 15.375L208.594 16.75C207.135 16.0833 204.573 15.75 200.906 15.75C199.115 15.75 197.906 15.9479 197.281 16.3438C196.677 16.7396 196.375 17.2917 196.375 18C196.375 18.7083 196.542 19.2604 196.875 19.6562C197.208 20.0521 197.823 20.25 198.719 20.25H202.594C205.406 20.25 207.938 20.7292 210.188 21.6875C212.458 22.6458 214.323 23.9583 215.781 25.625C217.24 27.2708 218.354 29.1771 219.125 31.3438C219.896 33.4896 220.281 35.7917 220.281 38.25C220.281 40.25 220 42.1458 219.438 43.9375C218.875 45.7292 218.021 47.375 216.875 48.875C215.75 50.375 214.385 51.6771 212.781 52.7812C211.198 53.8646 209.302 54.7083 207.094 55.3125C204.906 55.9375 202.531 56.25 199.969 56.25C195.948 56.25 192.177 55.6354 188.656 54.4062C185.156 53.1979 182.24 51.5 179.906 49.3125L181.719 47.9688C183.844 49.8854 186.5 51.375 189.688 52.4375C192.896 53.4792 196.323 54 199.969 54C202.823 54 205.396 53.5938 207.688 52.7812C210 51.9479 211.896 50.8125 213.375 49.375C214.875 47.9375 216.021 46.2708 216.812 44.375C217.625 42.4792 218.031 40.4375 218.031 38.25C218.031 35.3542 217.448 32.7396 216.281 30.4062C215.115 28.0521 213.333 26.1458 210.938 24.6875C208.562 23.2292 205.75 22.5 202.5 22.5ZM198.719 24.75H202.281C206.51 24.75 209.812 26.0417 212.188 28.625C214.583 31.2083 215.781 34.4167 215.781 38.25C215.781 42.1458 214.396 45.375 211.625 47.9375C208.854 50.4792 204.969 51.75 199.969 51.75C196.635 51.75 193.521 51.2917 190.625 50.375C187.729 49.4583 185.323 48.1667 183.406 46.5L185.156 45.0938C186.865 46.4896 189.01 47.5729 191.594 48.3438C194.198 49.1146 196.99 49.5 199.969 49.5C204.365 49.5 207.719 48.4479 210.031 46.3438C212.365 44.2396 213.531 41.5417 213.531 38.25C213.531 35 212.552 32.3125 210.594 30.1875C208.656 28.0625 205.875 27 202.25 27H198.719C195.677 27 193.396 26.1667 191.875 24.5C190.354 22.8333 189.594 20.6667 189.594 18C189.594 15.3333 190.531 13.1667 192.406 11.5C194.302 9.83333 197.135 9 200.906 9C203.552 9 206.01 9.3125 208.281 9.9375C210.552 10.5417 212.427 11.4167 213.906 12.5625L212.125 13.9375C209.521 12.1458 205.781 11.25 200.906 11.25C197.76 11.25 195.458 11.875 194 13.125C192.562 14.3542 191.844 15.9792 191.844 18C191.844 20.0417 192.375 21.6771 193.438 22.9062C194.521 24.1354 196.281 24.75 198.719 24.75ZM198.719 29.25H202.156C205.198 29.25 207.479 30.0938 209 31.7812C210.521 33.4688 211.281 35.625 211.281 38.25C211.281 40.9167 210.333 43.0833 208.438 44.75C206.562 46.4167 203.74 47.25 199.969 47.25C197.323 47.25 194.854 46.9479 192.562 46.3438C190.292 45.7188 188.417 44.8333 186.938 43.6875L188.719 42.3125C191.323 44.1042 195.073 45 199.969 45C203.115 45 205.406 44.3854 206.844 43.1562C208.302 41.9062 209.031 40.2708 209.031 38.25C209.031 36.2292 208.49 34.6042 207.406 33.375C206.323 32.125 204.562 31.5 202.125 31.5H198.719C194.448 31.5 191.104 30.2292 188.688 27.6875C186.292 25.125 185.094 21.8958 185.094 18C185.094 14.1042 186.479 10.8854 189.25 8.34375C192.021 5.78125 195.906 4.5 200.906 4.5C204.24 4.5 207.344 4.95833 210.219 5.875C213.115 6.79167 215.521 8.08333 217.438 9.75L215.688 11.1562C213.979 9.76042 211.833 8.67708 209.25 7.90625C206.667 7.13542 203.885 6.75 200.906 6.75C196.51 6.75 193.146 7.80208 190.812 9.90625C188.5 12.0104 187.344 14.7083 187.344 18C187.344 21.2708 188.323 23.9688 190.281 26.0938C192.24 28.1979 195.052 29.25 198.719 29.25ZM198.719 33.75H202.156C203.76 33.75 204.917 34.1667 205.625 35C206.333 35.8333 206.688 36.9167 206.688 38.25C206.688 41.25 204.448 42.75 199.969 42.75C195.74 42.75 192.562 42.125 190.438 40.875L192.25 39.5C193.708 40.1667 196.281 40.5 199.969 40.5C201.76 40.5 202.958 40.3021 203.562 39.9062C204.188 39.5104 204.5 38.9583 204.5 38.25C204.5 37.5625 204.323 37.0208 203.969 36.625C203.635 36.2083 203.01 36 202.094 36H198.719C195.844 36 193.24 35.5312 190.906 34.5938C188.594 33.6562 186.688 32.3646 185.188 30.7188C183.708 29.0729 182.573 27.1667 181.781 25C180.99 22.8333 180.594 20.5 180.594 18C180.594 16 180.875 14.1042 181.438 12.3125C182 10.5208 182.844 8.875 183.969 7.375C185.115 5.875 186.479 4.58333 188.062 3.5C189.667 2.39583 191.562 1.54167 193.75 0.9375C195.958 0.3125 198.344 0 200.906 0C204.927 0 208.688 0.614583 212.188 1.84375C215.688 3.05208 218.604 4.75 220.938 6.9375L219.125 8.28125C217 6.36458 214.344 4.88542 211.156 3.84375C207.969 2.78125 204.552 2.25 200.906 2.25C198.052 2.25 195.469 2.66667 193.156 3.5C190.865 4.3125 188.969 5.4375 187.469 6.875C185.99 8.3125 184.844 9.97917 184.031 11.875C183.24 13.7708 182.844 15.8125 182.844 18C182.844 20.9375 183.438 23.5833 184.625 25.9375C185.812 28.2917 187.625 30.1875 190.062 31.625C192.5 33.0417 195.385 33.75 198.719 33.75ZM236.531 54H234.281V2.25H236.531V54ZM232.031 54H229.781V2.25H232.031V54ZM227.531 54H225.281V2.25H227.531V54ZM241.031 42.75H264.969V45H241.031V47.25H264.969V49.5H241.031V51.75H264.969V54H238.781V2.25H264.969V4.5H241.031V6.75H264.969V9H241.031V11.25H264.969V13.5H241.031V22.5H253.312V24.75H241.031V27H253.312V29.25H241.031V31.5H253.312V33.75H241.031V42.75ZM284.031 2.25H286.281V54H284.031V2.25ZM279.531 2.25H281.781V54H279.531V2.25ZM275.031 2.25H277.281V54H275.031V2.25ZM270.531 2.25H272.781V54H270.531V2.25ZM292.219 2.25H294.469V54H292.219V2.25ZM305.719 2.25H307.969V42.75H325.969V45H307.969V47.25H325.969V49.5H307.969V51.75H325.969V54H305.719V2.25ZM301.219 2.25H303.469V54H301.219V2.25ZM296.719 2.25H298.969V54H296.719V2.25ZM353.312 38.8125L354.219 36.5625H361.906L362.812 38.8125H353.312ZM351.562 43.3125L352.438 41.0625H363.656L364.625 43.3125H351.562ZM349.812 47.8125L350.688 45.5625H365.438L366.375 47.8125H349.812ZM331.531 54H329.094L349.562 2.25H352L372.438 54H370.031L350.781 5.28125L331.531 54ZM351.062 10.625L352.344 13.5L336.344 54H333.938L351.062 10.625ZM353.562 16.5625L354.75 19.6562L341.219 54H338.781L353.562 16.5625ZM355.938 22.75L357.125 25.9062L346.031 54H343.625L355.938 22.75ZM386.969 54H384.531L364.094 2.25H366.5L386.969 54ZM361.656 2.25L382.125 54H379.719L359.25 2.25H361.656ZM356.812 2.25L377.281 54H374.844L354.406 2.25H356.812Z" fill="white"/>
</svg>
